<svg xmlns="http://www.w3.org/2000/svg" width="14" height="11.424" viewBox="0 0 14 11.424">
  <path id="_0xff02" data-name="0xff02" d="M-8.647-11.642h12.9a.529.529,0,0,0,.388-.16A.556.556,0,0,0,4.8-12.2a.508.508,0,0,0-.16-.394.548.548,0,0,0-.394-.16h-12.9a.529.529,0,0,0-.388.16.536.536,0,0,0-.16.394.536.536,0,0,0,.16.394A.529.529,0,0,0-8.647-11.642Zm12.9,4.055h-12.9a.529.529,0,0,0-.388.16.529.529,0,0,0-.16.388.529.529,0,0,0,.16.388.529.529,0,0,0,.388.16h12.9a.529.529,0,0,0,.388-.16.529.529,0,0,0,.16-.388.529.529,0,0,0-.16-.388A.529.529,0,0,0,4.251-7.586Zm0,5.152h-12.9a.529.529,0,0,0-.388.16.536.536,0,0,0-.16.394.536.536,0,0,0,.16.394.529.529,0,0,0,.388.16h12.9a.529.529,0,0,0,.388-.16A.556.556,0,0,0,4.8-1.88a.508.508,0,0,0-.16-.394A.548.548,0,0,0,4.251-2.434Z" transform="translate(9.195 12.75)"/>
</svg>
